<mxfile host="app.diagrams.net" modified="2020-12-03T00:19:09.354Z" agent="5.0 (Macintosh)" etag="bGjFG8QPLYRG-i29wbnf" version="13.10.4" type="github">
  <diagram id="MUCUB3l-CJVNb7D_R8eG" name="Page-1">
    <mxGraphModel dx="2526" dy="2829" grid="1" gridSize="10" guides="1" tooltips="1" connect="1" arrows="1" fold="1" page="1" pageScale="1" pageWidth="827" pageHeight="1169" math="0" shadow="0">
      <root>
        <mxCell id="0" />
        <mxCell id="1" parent="0" />
        <mxCell id="NbQ1JhCVINfoiGgM0SBX-1" style="edgeStyle=orthogonalEdgeStyle;rounded=0;orthogonalLoop=1;jettySize=auto;html=1;exitX=0.5;exitY=0.5;exitDx=0;exitDy=0;exitPerimeter=0;entryX=0;entryY=0.5;entryDx=0;entryDy=0;endArrow=none;endFill=0;" edge="1" parent="1" source="NbQ1JhCVINfoiGgM0SBX-2" target="NbQ1JhCVINfoiGgM0SBX-8">
          <mxGeometry relative="1" as="geometry" />
        </mxCell>
        <mxCell id="NbQ1JhCVINfoiGgM0SBX-2" value="Usuario" style="shape=umlActor;verticalLabelPosition=bottom;verticalAlign=top;html=1;outlineConnect=0;" vertex="1" parent="1">
          <mxGeometry x="-860" y="-1450" width="100" height="180" as="geometry" />
        </mxCell>
        <mxCell id="NbQ1JhCVINfoiGgM0SBX-3" style="edgeStyle=orthogonalEdgeStyle;rounded=0;orthogonalLoop=1;jettySize=auto;html=1;exitX=0.5;exitY=0.5;exitDx=0;exitDy=0;exitPerimeter=0;entryX=1;entryY=0.5;entryDx=0;entryDy=0;endArrow=none;endFill=0;" edge="1" parent="1" source="NbQ1JhCVINfoiGgM0SBX-4" target="NbQ1JhCVINfoiGgM0SBX-8">
          <mxGeometry relative="1" as="geometry" />
        </mxCell>
        <mxCell id="NbQ1JhCVINfoiGgM0SBX-4" value="Covid Tester" style="shape=umlActor;verticalLabelPosition=bottom;verticalAlign=top;html=1;outlineConnect=0;" vertex="1" parent="1">
          <mxGeometry x="-400" y="-1450" width="100" height="180" as="geometry" />
        </mxCell>
        <mxCell id="NbQ1JhCVINfoiGgM0SBX-5" style="edgeStyle=orthogonalEdgeStyle;rounded=0;orthogonalLoop=1;jettySize=auto;html=1;exitX=0.5;exitY=0;exitDx=0;exitDy=0;entryX=0.5;entryY=1;entryDx=0;entryDy=0;endArrow=classic;endFill=1;dashed=1;" edge="1" parent="1" source="NbQ1JhCVINfoiGgM0SBX-8" target="NbQ1JhCVINfoiGgM0SBX-11">
          <mxGeometry relative="1" as="geometry" />
        </mxCell>
        <mxCell id="NbQ1JhCVINfoiGgM0SBX-6" style="rounded=0;orthogonalLoop=1;jettySize=auto;html=1;exitX=0;exitY=1;exitDx=0;exitDy=0;entryX=0.5;entryY=0;entryDx=0;entryDy=0;endArrow=classic;endFill=1;dashed=1;" edge="1" parent="1" source="NbQ1JhCVINfoiGgM0SBX-8" target="NbQ1JhCVINfoiGgM0SBX-9">
          <mxGeometry relative="1" as="geometry" />
        </mxCell>
        <mxCell id="NbQ1JhCVINfoiGgM0SBX-7" style="rounded=0;orthogonalLoop=1;jettySize=auto;html=1;exitX=1;exitY=1;exitDx=0;exitDy=0;entryX=0.5;entryY=0;entryDx=0;entryDy=0;endArrow=classic;endFill=1;dashed=1;" edge="1" parent="1" source="NbQ1JhCVINfoiGgM0SBX-8" target="NbQ1JhCVINfoiGgM0SBX-10">
          <mxGeometry relative="1" as="geometry" />
        </mxCell>
        <mxCell id="NbQ1JhCVINfoiGgM0SBX-8" value="Dysplay" style="ellipse;whiteSpace=wrap;html=1;" vertex="1" parent="1">
          <mxGeometry x="-640" y="-1400" width="120" height="80" as="geometry" />
        </mxCell>
        <mxCell id="NbQ1JhCVINfoiGgM0SBX-9" value="Dashboard Doctor/cliente" style="ellipse;whiteSpace=wrap;html=1;" vertex="1" parent="1">
          <mxGeometry x="-730" y="-1290" width="120" height="80" as="geometry" />
        </mxCell>
        <mxCell id="NbQ1JhCVINfoiGgM0SBX-10" value="Reprecntacion visual por colores segun estado salud" style="ellipse;whiteSpace=wrap;html=1;" vertex="1" parent="1">
          <mxGeometry x="-560" y="-1290" width="120" height="80" as="geometry" />
        </mxCell>
        <mxCell id="NbQ1JhCVINfoiGgM0SBX-11" value="Conexion base de datos" style="ellipse;whiteSpace=wrap;html=1;" vertex="1" parent="1">
          <mxGeometry x="-640" y="-1520" width="120" height="80" as="geometry" />
        </mxCell>
        <mxCell id="NbQ1JhCVINfoiGgM0SBX-12" value="&amp;lt;&amp;lt;include&amp;gt;&amp;gt;" style="text;html=1;strokeColor=none;fillColor=none;align=center;verticalAlign=middle;whiteSpace=wrap;rounded=0;dashed=1;" vertex="1" parent="1">
          <mxGeometry x="-640" y="-1430" width="40" height="20" as="geometry" />
        </mxCell>
        <mxCell id="NbQ1JhCVINfoiGgM0SBX-13" value="&amp;lt;&amp;lt;include&amp;gt;&amp;gt;" style="text;html=1;strokeColor=none;fillColor=none;align=center;verticalAlign=middle;whiteSpace=wrap;rounded=0;dashed=1;" vertex="1" parent="1">
          <mxGeometry x="-700" y="-1330" width="40" height="20" as="geometry" />
        </mxCell>
        <mxCell id="NbQ1JhCVINfoiGgM0SBX-14" value="&amp;lt;&amp;lt;include&amp;gt;&amp;gt;" style="text;html=1;strokeColor=none;fillColor=none;align=center;verticalAlign=middle;whiteSpace=wrap;rounded=0;dashed=1;" vertex="1" parent="1">
          <mxGeometry x="-510" y="-1330" width="40" height="20" as="geometry" />
        </mxCell>
        <mxCell id="NbQ1JhCVINfoiGgM0SBX-15" value="&lt;font style=&quot;font-size: 21px&quot;&gt;Nivel 1&lt;br&gt;&lt;/font&gt;" style="text;html=1;strokeColor=none;fillColor=none;align=center;verticalAlign=middle;whiteSpace=wrap;rounded=0;" vertex="1" parent="1">
          <mxGeometry x="-810" y="-1520" width="100" height="20" as="geometry" />
        </mxCell>
      </root>
    </mxGraphModel>
  </diagram>
</mxfile>
